<svg fill="#fff" xmlns="http://www.w3.org/2000/svg" viewBox="0 0 200.7 30.3">
  <path d="M0 .5h10.6c6.5 0 10.9 3.3 10.9 9v.1c0 6.2-5.3 9.3-11.4 9.3H2.2v10.9H0V.5zm10.2 16.4c5.4 0 9.1-2.9 9.1-7.2v-.1c0-4.7-3.6-7.1-8.9-7.1H2.2v14.4h8zM37.3.3h2.1L53 29.8h-2.4l-3.7-8.2H29.6l-3.7 8.2h-2.3L37.3.3zM46 19.7l-7.7-17-7.8 17H46zm19.2-1.5L52.6.5h2.7l11 15.8L77.3.5H80L67.4 18.2v11.7h-2.2V18.2zm19.4-2.9C84.6 6.8 91.1 0 100 0c5.3 0 8.5 1.4 11.5 4l-4.1 4.9c-2.3-1.9-4.3-3-7.7-3-4.7 0-8.4 4.1-8.4 9.1v.1c0 5.4 3.7 9.3 8.9 9.3 2.3 0 4.4-.6 6.1-1.8v-4.2h-6.5V13h12.7v12.7c-3 2.6-7.2 4.7-12.5 4.7-9.1-.1-15.4-6.5-15.4-15.1zm45.2-15h6l12.6 29.6h-6.7l-2.7-6.6h-12.4l-2.7 6.6h-6.6L129.8.3zm6.8 17.3L132.7 8l-3.9 9.5h7.8zM157 6.5h-8.9v-6h24.3v6h-8.9v23.4H157V6.5zm21.4-6h22.1v5.7h-15.7v6h13.8v5.7h-13.8v6.2h15.9v5.7h-22.3V.5z"/>
</svg>
